<?xml version="1.0" encoding="utf-8"?><svg xmlns="http://www.w3.org/2000/svg" xmlns:xlink="http://www.w3.org/1999/xlink" width="1280" height="644" preserveAspectRatio="xMidYMid" viewBox="0 0 1280 644" style="z-index:1;display:block;background-color:rgb(153, 204, 255);animation-play-state:paused" ><g transform="translate(640,322) scale(1,1) translate(-640,-322)" style="animation-play-state:paused" ><defs style="animation-play-state:paused" ><linearGradient id="lg-0.048952555764271266" x1="0" x2="0" y1="0" y2="1" style="animation-play-state:paused" ><stop stop-color="#3184ce" offset="0" style="animation-play-state:paused" ></stop>

  
<stop stop-color="#e9f6ff" offset="1" style="animation-play-state:paused" ></stop></linearGradient></defs>


<rect x="0" y="0" width="1280" height="644" fill="url(#lg-0.048952555764271266)" style="animation-play-state:paused" ></rect>
<circle cx="0" cy="178.35166872735013" r="78.04027606054156" fill="#91cbf0" transform="matrix(1,0,0,1,0,0)" style="animation-play-state:paused" ></circle>
<circle cx="78.04027606054156" cy="179.6302672636797" r="87.66439187851505" fill="#91cbf0" transform="matrix(1,0,0,1,-0.005429745186120272,0)" style="animation-play-state:paused" ></circle>
<circle cx="165.7046679390566" cy="203.56586807131174" r="76.95248345942117" fill="#91cbf0" transform="matrix(1,0,0,1,-0.022117653861641884,0)" style="animation-play-state:paused" ></circle>
<circle cx="242.65715139847777" cy="232.48300281580003" r="53.04167900781636" fill="#91cbf0" transform="matrix(1,0,0,1,-0.050691839307546616,0)" style="animation-play-state:paused" ></circle>
<circle cx="295.6988304062941" cy="219.87285853712203" r="80.7465805194382" fill="#91cbf0" transform="matrix(1,0,0,1,-0.09182170033454895,0)" style="animation-play-state:paused" ></circle>
<circle cx="376.4454109257323" cy="239.41816669799996" r="65.93312536163043" fill="#91cbf0" transform="matrix(1,0,0,1,-0.14621886610984802,0)" style="animation-play-state:paused" ></circle>
<circle cx="442.37853628736275" cy="258.07263233491915" r="37.58665319966187" fill="#91cbf0" transform="matrix(1,0,0,1,-0.21463720500469208,0)" style="animation-play-state:paused" ></circle>
<circle cx="479.96518948702465" cy="259.66621372568176" r="41.1036781636314" fill="#91cbf0" transform="matrix(1,0,0,1,-0.2978716492652893,0)" style="animation-play-state:paused" ></circle>
<circle cx="521.0688676506561" cy="263.70810000277646" r="37.184096189346384" fill="#91cbf0" transform="matrix(1,0,0,1,-0.3967548906803131,0)" style="animation-play-state:paused" ></circle>
<circle cx="558.2529638400025" cy="263.38425937641455" r="56.21074330962498" fill="#91cbf0" transform="matrix(1,0,0,1,-0.5121518969535828,0)" style="animation-play-state:paused" ></circle>
<circle cx="614.4637071496275" cy="269.59206855503936" r="50.29038911418519" fill="#91cbf0" transform="matrix(1,0,0,1,-0.6449503302574158,0)" style="animation-play-state:paused" ></circle>
<circle cx="664.7540962638127" cy="267.740995926887" r="91.7613317321614" fill="#91cbf0" transform="matrix(1,0,0,1,-0.7960466742515564,0)" style="animation-play-state:paused" ></circle>
<circle cx="756.515427995974" cy="257.9380230188809" r="64.36676400361304" fill="#91cbf0" transform="matrix(1,0,0,1,-0.9663257598876953,0)" style="animation-play-state:paused" ></circle>
<circle cx="820.8821919995871" cy="250.03753129770408" r="64.75660490255024" fill="#91cbf0" transform="matrix(1,0,0,1,-1.1566325426101685,0)" style="animation-play-state:paused" ></circle>
<circle cx="885.6387969021373" cy="245.68695733619074" r="57.13113291147816" fill="#91cbf0" transform="matrix(1,0,0,1,-1.3677335977554321,0)" style="animation-play-state:paused" ></circle>
<circle cx="942.7699298136155" cy="223.56257069544543" r="85.32318795660682" fill="#91cbf0" transform="matrix(1,0,0,1,-1.600266933441162,0)" style="animation-play-state:paused" ></circle>
<circle cx="1028.0931177702223" cy="247.40772572780486" r="33.795702658151505" fill="#91cbf0" transform="matrix(1,0,0,1,-1.8546782732009888,0)" style="animation-play-state:paused" ></circle>
<circle cx="1061.8888204283737" cy="210.9708499261373" r="77.15037342384245" fill="#91cbf0" transform="matrix(1,0,0,1,-2.131143808364868,0)" style="animation-play-state:paused" ></circle>
<circle cx="1139.0391938522162" cy="197.89418054707605" r="79.19839602804895" fill="#91cbf0" transform="matrix(1,0,0,1,-2.4294800758361816,0)" style="animation-play-state:paused" ></circle>
<circle cx="1218.2375898802652" cy="201.1089634819275" r="65.38584393565219" fill="#91cbf0" transform="matrix(1,0,0,1,-2.749046564102173,0)" style="animation-play-state:paused" ></circle>
<circle cx="1283.6234338159175" cy="199.19182660917923" r="60.331901805091505" fill="#91cbf0" transform="matrix(1,0,0,1,-3.0886495113372803,0)" style="animation-play-state:paused" ></circle>
<circle cx="0" cy="269.11234307104223" r="54.07304744079816" fill="#a8d1f5" transform="matrix(1,0,0,1,0,0)" style="animation-play-state:paused" ></circle>
<circle cx="54.07304744079816" cy="233.432649256886" r="91.54028528992802" fill="#a8d1f5" transform="matrix(1,0,0,1,-0.022117653861641884,0)" style="animation-play-state:paused" ></circle>
<circle cx="145.6133327307262" cy="285.83772453683787" r="51.956390845985304" fill="#a8d1f5" transform="matrix(1,0,0,1,-0.09182170033454895,0)" style="animation-play-state:paused" ></circle>
<circle cx="197.5697235767115" cy="294.64876732345033" r="47.43645544293748" fill="#a8d1f5" transform="matrix(1,0,0,1,-0.21463720500469208,0)" style="animation-play-state:paused" ></circle>
<circle cx="245.00617901964898" cy="309.0236475595905" r="33.72387261271709" fill="#a8d1f5" transform="matrix(1,0,0,1,-0.3967548906803131,0)" style="animation-play-state:paused" ></circle>
<circle cx="278.7300516323661" cy="299.9404088268295" r="50.281279620502765" fill="#a8d1f5" transform="matrix(1,0,0,1,-0.6449503302574158,0)" style="animation-play-state:paused" ></circle>
<circle cx="329.01133125286884" cy="295.2802967197556" r="66.40276798291173" fill="#a8d1f5" transform="matrix(1,0,0,1,-0.9663257598876953,0)" style="animation-play-state:paused" ></circle>
<circle cx="395.41409923578055" cy="301.74828653239763" r="70.32667784873497" fill="#a8d1f5" transform="matrix(1,0,0,1,-1.3677335977554321,0)" style="animation-play-state:paused" ></circle>
<circle cx="465.7407770845155" cy="318.628525450006" r="47.045542972338836" fill="#a8d1f5" transform="matrix(1,0,0,1,-1.8546782732009888,0)" style="animation-play-state:paused" ></circle>
<circle cx="512.7863200568544" cy="325.5155284326902" r="35.57047877702759" fill="#a8d1f5" transform="matrix(1,0,0,1,-2.4294800758361816,0)" style="animation-play-state:paused" ></circle>
<circle cx="548.356798833882" cy="319.5893467721573" r="83.86526904035765" fill="#a8d1f5" transform="matrix(1,0,0,1,-3.0886495113372803,0)" style="animation-play-state:paused" ></circle>
<circle cx="632.2220678742397" cy="333.18263826669534" r="56.04654948308141" fill="#a8d1f5" transform="matrix(1,0,0,1,-3.8199729919433594,0)" style="animation-play-state:paused" ></circle>
<circle cx="688.2686173573211" cy="329.32498654855425" r="51.655519547620834" fill="#a8d1f5" transform="matrix(1,0,0,1,-4.6007561683654785,0)" style="animation-play-state:paused" ></circle>
<circle cx="739.924136904942" cy="324.566173617157" r="50.35193924803125" fill="#a8d1f5" transform="matrix(1,0,0,1,-5.3992438316345215,0)" style="animation-play-state:paused" ></circle>
<circle cx="790.2760761529732" cy="318.4343366738354" r="55.242905722645396" fill="#a8d1f5" transform="matrix(1,0,0,1,-6.180027008056641,0)" style="animation-play-state:paused" ></circle>
<circle cx="845.5189818756187" cy="317.1484151795392" r="43.7308117343879" fill="#a8d1f5" transform="matrix(1,0,0,1,-6.911350250244141,0)" style="animation-play-state:paused" ></circle>
<circle cx="889.2497936100066" cy="291.87440676660617" r="90.13842191164834" fill="#a8d1f5" transform="matrix(1,0,0,1,-7.570519924163818,0)" style="animation-play-state:paused" ></circle>
<circle cx="979.388215521655" cy="305.9382999977464" r="44.0977008532784" fill="#a8d1f5" transform="matrix(1,0,0,1,-8.1453218460083,0)" style="animation-play-state:paused" ></circle>
<circle cx="1023.4859163749334" cy="285.6776868898958" r="67.20429414725044" fill="#a8d1f5" transform="matrix(1,0,0,1,-8.6322660446167,0)" style="animation-play-state:paused" ></circle>
<circle cx="1090.6902105221839" cy="284.3336316782945" r="58.77369677252491" fill="#a8d1f5" transform="matrix(1,0,0,1,-9.033674240112305,0)" style="animation-play-state:paused" ></circle>
<circle cx="1149.4639072947089" cy="294.73464007243456" r="41.105022347711774" fill="#a8d1f5" transform="matrix(1,0,0,1,-9.355050086975098,0)" style="animation-play-state:paused" ></circle>
<circle cx="1190.5689296424207" cy="273.90079447134605" r="58.21779597352068" fill="#a8d1f5" transform="matrix(1,0,0,1,-9.60324478149414,0)" style="animation-play-state:paused" ></circle>
<circle cx="1248.7867256159414" cy="258.60627476965414" r="66.04938165962021" fill="#a8d1f5" transform="matrix(1,0,0,1,-9.78536319732666,0)" style="animation-play-state:paused" ></circle>
<circle cx="1314.8361072755615" cy="221.22064841489777" r="89.1312525568425" fill="#a8d1f5" transform="matrix(1,0,0,1,-9.908178329467773,0)" style="animation-play-state:paused" ></circle>
<circle cx="0" cy="332.71695572291594" r="52.73587023090336" fill="#bdd7f8" transform="matrix(1,0,0,1,0,0)" style="animation-play-state:paused" ></circle>
<circle cx="52.73587023090336" cy="327.523376381321" r="62.188143424189036" fill="#bdd7f8" transform="matrix(1,0,0,1,-0.05070226266980171,0)" style="animation-play-state:paused" ></circle>
<circle cx="114.9240136550924" cy="358.5550923731638" r="38.0337663887397" fill="#bdd7f8" transform="matrix(1,0,0,1,-0.21468262374401093,0)" style="animation-play-state:paused" ></circle>
<circle cx="152.9577800438321" cy="321.2787990271524" r="81.82310599090405" fill="#bdd7f8" transform="matrix(1,0,0,1,-0.5122634768486023,0)" style="animation-play-state:paused" ></circle>
<circle cx="234.78088603473614" cy="362.75651985979795" r="43.75375065919093" fill="#bdd7f8" transform="matrix(1,0,0,1,-0.9665420055389404,0)" style="animation-play-state:paused" ></circle>
<circle cx="278.53463669392704" cy="356.2795750500773" r="58.606518882477" fill="#bdd7f8" transform="matrix(1,0,0,1,-1.6006320714950562,0)" style="animation-play-state:paused" ></circle>
<circle cx="337.14115557640406" cy="373.4941313403763" r="39.63275358407902" fill="#bdd7f8" transform="matrix(1,0,0,1,-2.4300365447998047,0)" style="animation-play-state:paused" ></circle>
<circle cx="376.7739091604831" cy="354.38496401741304" r="84.31795566538774" fill="#bdd7f8" transform="matrix(1,0,0,1,-3.447230339050293,0)" style="animation-play-state:paused" ></circle>
<circle cx="461.0918648258708" cy="377.2635192924915" r="55.85430590367141" fill="#bdd7f8" transform="matrix(1,0,0,1,-4.601711273193359,0)" style="animation-play-state:paused" ></circle>
<circle cx="516.9461707295422" cy="384.1955007285185" r="51.16243015040899" fill="#bdd7f8" transform="matrix(1,0,0,1,-5.795055866241455,0)" style="animation-play-state:paused" ></circle>
<circle cx="568.1086008799513" cy="390.02348960999257" r="44.33732333796032" fill="#bdd7f8" transform="matrix(1,0,0,1,-6.912397861480713,0)" style="animation-play-state:paused" ></circle>
<circle cx="612.4459242179116" cy="394.37487915561326" r="31.455641040577937" fill="#bdd7f8" transform="matrix(1,0,0,1,-7.869804859161377,0)" style="animation-play-state:paused" ></circle>
<circle cx="643.9015652584895" cy="395.67119607905715" r="44.94659951873063" fill="#bdd7f8" transform="matrix(1,0,0,1,-8.633064270019531,0)" style="animation-play-state:paused" ></circle>
<circle cx="688.8481647772202" cy="390.78684764566657" r="56.918165400714415" fill="#bdd7f8" transform="matrix(1,0,0,1,-9.20457935333252,0)" style="animation-play-state:paused" ></circle>
<circle cx="745.7663301779346" cy="384.6392129242114" r="57.28747920275927" fill="#bdd7f8" transform="matrix(1,0,0,1,-9.603693962097168,0)" style="animation-play-state:paused" ></circle>
<circle cx="803.0538093806939" cy="369.98005199620474" r="85.10874817787155" fill="#bdd7f8" transform="matrix(1,0,0,1,-9.854056358337402,0)" style="animation-play-state:paused" ></circle>
<circle cx="888.1625575585655" cy="363.8093900696075" r="69.18177127569967" fill="#bdd7f8" transform="matrix(1,0,0,1,-9.97799015045166,0)" style="animation-play-state:paused" ></circle>
<circle cx="957.3443288342652" cy="363.4212019664328" r="54.75238525630065" fill="#bdd7f8" transform="matrix(1,0,0,1,-9.994514465332031,0)" style="animation-play-state:paused" ></circle>
<circle cx="1012.0967140905658" cy="356.7946880345764" r="56.19372309158143" fill="#bdd7f8" transform="matrix(1,0,0,1,-9.907920837402344,0)" style="animation-play-state:paused" ></circle>
<circle cx="1068.2904371821473" cy="337.052702107576" r="73.40476495997267" fill="#bdd7f8" transform="matrix(1,0,0,1,-9.70160961151123,0)" style="animation-play-state:paused" ></circle>
<circle cx="1141.69520214212" cy="347.8883464948962" r="51.14569249714796" fill="#bdd7f8" transform="matrix(1,0,0,1,-9.354198455810547,0)" style="animation-play-state:paused" ></circle>
<circle cx="1192.840894639268" cy="340.8991516885215" r="53.15655803399002" fill="#bdd7f8" transform="matrix(1,0,0,1,-8.842103004455566,0)" style="animation-play-state:paused" ></circle>
<circle cx="1245.997452673258" cy="304.15734481656676" r="80.82995929287335" fill="#bdd7f8" transform="matrix(1,0,0,1,-8.143568992614746,0)" style="animation-play-state:paused" ></circle>
<circle cx="1326.8274119661314" cy="341.2251652907919" r="42.53360403105877" fill="#bdd7f8" transform="matrix(1,0,0,1,-7.248676776885986,0)" style="animation-play-state:paused" ></circle>
<circle cx="0" cy="401.7622132253388" r="46.864822312217626" fill="#cfddfa" transform="matrix(1,0,0,1,0,0)" style="animation-play-state:paused" ></circle>
<circle cx="46.864822312217626" cy="359.1260484204606" r="88.90515376498554" fill="#cfddfa" transform="matrix(1,0,0,1,-0.09182170033454895,0)" style="animation-play-state:paused" ></circle>
<circle cx="135.76997607720318" cy="418.93000958174144" r="41.32504459167557" fill="#cfddfa" transform="matrix(1,0,0,1,-0.3967548906803131,0)" style="animation-play-state:paused" ></circle>
<circle cx="177.09502066887876" cy="427.3329914141007" r="35.332819137337836" fill="#cfddfa" transform="matrix(1,0,0,1,-0.9663257598876953,0)" style="animation-play-state:paused" ></circle>
<circle cx="212.42783980621658" cy="431.6452018665948" r="32.873731375414486" fill="#cfddfa" transform="matrix(1,0,0,1,-1.8546782732009888,0)" style="animation-play-state:paused" ></circle>
<circle cx="245.30157118163106" cy="391.3911336343804" r="90.00473813560097" fill="#cfddfa" transform="matrix(1,0,0,1,-3.0886495113372803,0)" style="animation-play-state:paused" ></circle>
<circle cx="335.30630931723204" cy="412.7708643910557" r="79.16870744533561" fill="#cfddfa" transform="matrix(1,0,0,1,-4.6007561683654785,0)" style="animation-play-state:paused" ></circle>
<circle cx="414.47501676256763" cy="431.4258552608048" r="62.843934143279654" fill="#cfddfa" transform="matrix(1,0,0,1,-6.180027008056641,0)" style="animation-play-state:paused" ></circle>
<circle cx="477.31895090584726" cy="437.78255854428863" r="66.28083297400886" fill="#cfddfa" transform="matrix(1,0,0,1,-7.570519924163818,0)" style="animation-play-state:paused" ></circle>
<circle cx="543.5997838798561" cy="442.156826020225" r="87.65221831746152" fill="#cfddfa" transform="matrix(1,0,0,1,-8.6322660446167,0)" style="animation-play-state:paused" ></circle>
<circle cx="631.2520021973176" cy="456.8941471939678" r="67.41978867853989" fill="#cfddfa" transform="matrix(1,0,0,1,-9.355050086975098,0)" style="animation-play-state:paused" ></circle>
<circle cx="698.6717908758575" cy="453.45190364185714" r="41.34271947045089" fill="#cfddfa" transform="matrix(1,0,0,1,-9.78536319732666,0)" style="animation-play-state:paused" ></circle>
<circle cx="740.0145103463084" cy="444.141615945256" r="73.90065838384587" fill="#cfddfa" transform="matrix(1,0,0,1,-9.977882385253906,0)" style="animation-play-state:paused" ></circle>
<circle cx="813.9151687301543" cy="430.3223865043993" r="84.8769775063386" fill="#cfddfa" transform="matrix(1,0,0,1,-9.977882385253906,0)" style="animation-play-state:paused" ></circle>
<circle cx="898.7921462364928" cy="418.5598898423262" r="81.28038552686145" fill="#cfddfa" transform="matrix(1,0,0,1,-9.78536319732666,0)" style="animation-play-state:paused" ></circle>
<circle cx="980.0725317633543" cy="402.7380140031313" r="86.66697967491048" fill="#cfddfa" transform="matrix(1,0,0,1,-9.355050086975098,0)" style="animation-play-state:paused" ></circle>
<circle cx="1066.7395114382648" cy="396.2971259233504" r="77.11542668414754" fill="#cfddfa" transform="matrix(1,0,0,1,-8.6322660446167,0)" style="animation-play-state:paused" ></circle>
<circle cx="1143.8549381224122" cy="409.7838604551033" r="51.03705943574052" fill="#cfddfa" transform="matrix(1,0,0,1,-7.570519924163818,0)" style="animation-play-state:paused" ></circle>
<circle cx="1194.8919975581528" cy="376.88402732669704" r="77.96445485392748" fill="#cfddfa" transform="matrix(1,0,0,1,-6.180027008056641,0)" style="animation-play-state:paused" ></circle>
<circle cx="1272.8564524120802" cy="405.66621796440364" r="44.103762097396505" fill="#cfddfa" transform="matrix(1,0,0,1,-4.6007561683654785,0)" style="animation-play-state:paused" ></circle>
<circle cx="1316.9602145094768" cy="398.22923841721985" r="47.08953174436489" fill="#cfddfa" transform="matrix(1,0,0,1,-3.0886495113372803,0)" style="animation-play-state:paused" ></circle>
<circle cx="0" cy="450.64765147760806" r="57.793623768659955" fill="#dfe5fb" transform="matrix(1,0,0,1,0,0)" style="animation-play-state:paused" ></circle>
<circle cx="57.793623768659955" cy="437.1370863178236" r="75.90702501387081" fill="#dfe5fb" transform="matrix(1,0,0,1,-0.14621886610984802,0)" style="animation-play-state:paused" ></circle>
<circle cx="133.70064878253078" cy="459.59865168309875" r="63.626493611373114" fill="#dfe5fb" transform="matrix(1,0,0,1,-0.6449503302574158,0)" style="animation-play-state:paused" ></circle>
<circle cx="197.3271423939039" cy="464.1243457219998" r="67.31912389980785" fill="#dfe5fb" transform="matrix(1,0,0,1,-1.600266933441162,0)" style="animation-play-state:paused" ></circle>
<circle cx="264.64626629371173" cy="460.40291413073555" r="84.68042171782245" fill="#dfe5fb" transform="matrix(1,0,0,1,-3.0886495113372803,0)" style="animation-play-state:paused" ></circle>
<circle cx="349.3266880115342" cy="473.0811447680097" r="86.08767446133629" fill="#dfe5fb" transform="matrix(1,0,0,1,-5,0)" style="animation-play-state:paused" ></circle>
<circle cx="435.4143624728705" cy="507.0842633604744" r="33.66997291537743" fill="#dfe5fb" transform="matrix(1,0,0,1,-6.911350250244141,0)" style="animation-play-state:paused" ></circle>
<circle cx="469.08433538824795" cy="496.024915748361" r="74.81298820631872" fill="#dfe5fb" transform="matrix(1,0,0,1,-8.399733543395996,0)" style="animation-play-state:paused" ></circle>
<circle cx="543.8973235945666" cy="504.9088182719829" r="83.7503236745173" fill="#dfe5fb" transform="matrix(1,0,0,1,-9.355050086975098,0)" style="animation-play-state:paused" ></circle>
<circle cx="627.6476472690839" cy="518.8299210861165" r="50.5200993688109" fill="#dfe5fb" transform="matrix(1,0,0,1,-9.853780746459961,0)" style="animation-play-state:paused" ></circle>
<circle cx="678.1677466378948" cy="516.1505974604011" r="53.789255814954835" fill="#dfe5fb" transform="matrix(1,0,0,1,-10,0)" style="animation-play-state:paused" ></circle>
<circle cx="731.9570024528496" cy="513.4338733874795" r="38.082300422307405" fill="#dfe5fb" transform="matrix(1,0,0,1,-9.853780746459961,0)" style="animation-play-state:paused" ></circle>
<circle cx="770.039302875157" cy="504.9968014155292" r="61.532980681999845" fill="#dfe5fb" transform="matrix(1,0,0,1,-9.355050086975098,0)" style="animation-play-state:paused" ></circle>
<circle cx="831.5722835571569" cy="502.1440246010857" r="49.71067162009196" fill="#dfe5fb" transform="matrix(1,0,0,1,-8.399733543395996,0)" style="animation-play-state:paused" ></circle>
<circle cx="881.2829551772488" cy="501.1452345701274" r="41.676689878673365" fill="#dfe5fb" transform="matrix(1,0,0,1,-6.911350250244141,0)" style="animation-play-state:paused" ></circle>
<circle cx="922.9596450559222" cy="482.31528257186136" r="71.02961963958433" fill="#dfe5fb" transform="matrix(1,0,0,1,-5,0)" style="animation-play-state:paused" ></circle>
<circle cx="993.9892646955066" cy="498.5981126112479" r="32.244875986524946" fill="#dfe5fb" transform="matrix(1,0,0,1,-3.0886495113372803,0)" style="animation-play-state:paused" ></circle>
<circle cx="1026.2341406820315" cy="464.4105018077023" r="76.76103494339473" fill="#dfe5fb" transform="matrix(1,0,0,1,-1.600266933441162,0)" style="animation-play-state:paused" ></circle>
<circle cx="1102.995175625426" cy="447.7848923103809" r="83.18601602944027" fill="#dfe5fb" transform="matrix(1,0,0,1,-0.6449503302574158,0)" style="animation-play-state:paused" ></circle>
<circle cx="1186.1811916548663" cy="482.4467473371027" r="36.66988487744906" fill="#dfe5fb" transform="matrix(1,0,0,1,-0.14621886610984802,0)" style="animation-play-state:paused" ></circle>
<circle cx="1222.8510765323153" cy="454.463257885775" r="59.9688849088859" fill="#dfe5fb" transform="matrix(1,0,0,1,0,0)" style="animation-play-state:paused" ></circle>
<circle cx="1282.8199614412013" cy="466.3258119100319" r="44.53227243255327" fill="#dfe5fb" transform="matrix(1,0,0,1,-0.14621886610984802,0)" style="animation-play-state:paused" ></circle>
<circle cx="0" cy="475.62399846361393" r="88.64666794698837" fill="#ecedfc" transform="matrix(1,0,0,1,0,0)" style="animation-play-state:paused" ></circle>
<circle cx="88.64666794698837" cy="547.1197100528412" r="33.74028998044165" fill="#ecedfc" transform="matrix(1,0,0,1,-0.21454641222953796,0)" style="animation-play-state:paused" ></circle>
<circle cx="122.38695792743002" cy="523.0774294977421" r="60.71209258697868" fill="#ecedfc" transform="matrix(1,0,0,1,-0.965893566608429,0)" style="animation-play-state:paused" ></circle>
<circle cx="183.0990505144087" cy="507.6597542530162" r="86.77620633027021" fill="#ecedfc" transform="matrix(1,0,0,1,-2.428367853164673,0)" style="animation-play-state:paused" ></circle>
<circle cx="269.8752568446789" cy="539.6023426958841" r="61.093143092137" fill="#ecedfc" transform="matrix(1,0,0,1,-4.59884786605835,0)" style="animation-play-state:paused" ></circle>
<circle cx="330.9683999368159" cy="546.3428261826303" r="61.53791186848082" fill="#ecedfc" transform="matrix(1,0,0,1,-6.9092559814453125,0)" style="animation-play-state:paused" ></circle>
<circle cx="392.5063118052967" cy="542.5963889015435" r="84.91230384823974" fill="#ecedfc" transform="matrix(1,0,0,1,-8.630669593811035,0)" style="animation-play-state:paused" ></circle>
<circle cx="477.41861565353645" cy="554.7397097134403" r="89.42488431014162" fill="#ecedfc" transform="matrix(1,0,0,1,-9.602346420288086,0)" style="animation-play-state:paused" ></circle>
<circle cx="566.843499963678" cy="575.7403308227489" r="45.63490908134873" fill="#ecedfc" transform="matrix(1,0,0,1,-9.977665901184082,0)" style="animation-play-state:paused" ></circle>
<circle cx="612.4784090450268" cy="577.5427375600282" r="86.37606156347917" fill="#ecedfc" transform="matrix(1,0,0,1,-9.908692359924316,0)" style="animation-play-state:paused" ></circle>
<circle cx="698.854470608506" cy="573.530315867536" r="76.75143152157784" fill="#ecedfc" transform="matrix(1,0,0,1,-9.356749534606934,0)" style="animation-play-state:paused" ></circle>
<circle cx="775.6059021300838" cy="573.1382129321572" r="34.853102718559974" fill="#ecedfc" transform="matrix(1,0,0,1,-8.148822784423828,0)" style="animation-play-state:paused" ></circle>
<circle cx="810.4590048486438" cy="552.9467679620726" r="90.9019567529047" fill="#ecedfc" transform="matrix(1,0,0,1,-6.185501575469971,0)" style="animation-play-state:paused" ></circle>
<circle cx="901.3609616015484" cy="554.1018310569307" r="56.92902009974664" fill="#ecedfc" transform="matrix(1,0,0,1,-3.825906753540039,0)" style="animation-play-state:paused" ></circle>
<circle cx="958.289981701295" cy="563.3099716409595" r="31.317401419741365" fill="#ecedfc" transform="matrix(1,0,0,1,-1.8591398000717163,0)" style="animation-play-state:paused" ></circle>
<circle cx="989.6073831210364" cy="528.6074660939042" r="81.45142081679806" fill="#ecedfc" transform="matrix(1,0,0,1,-0.6475051641464233,0)" style="animation-play-state:paused" ></circle>
<circle cx="1071.0588039378345" cy="545.081708127273" r="45.677655775925075" fill="#ecedfc" transform="matrix(1,0,0,1,-0.09273867309093475,0)" style="animation-play-state:paused" ></circle>
<circle cx="1116.7364597137596" cy="544.2354451036433" r="42.247861547691556" fill="#ecedfc" transform="matrix(1,0,0,1,-0.02166074886918068,0)" style="animation-play-state:paused" ></circle>
<circle cx="1158.9843212614512" cy="530.5216394561645" r="52.901647503812946" fill="#ecedfc" transform="matrix(1,0,0,1,-0.3944481611251831,0)" style="animation-play-state:paused" ></circle>
<circle cx="1211.8859687652641" cy="528.9291143620618" r="49.49320998615291" fill="#ecedfc" transform="matrix(1,0,0,1,-1.3626848459243774,0)" style="animation-play-state:paused" ></circle>
<circle cx="1261.379178751417" cy="496.64230448887986" r="73.26300241355425" fill="#ecedfc" transform="matrix(1,0,0,1,-3.0802788734436035,0)" style="animation-play-state:paused" ></circle>
<circle cx="1334.6421811649711" cy="494.91298869436787" r="66.86378582967146" fill="#ecedfc" transform="matrix(1,0,0,1,-5.38922119140625,0)" style="animation-play-state:paused" ></circle>
<circle cx="0" cy="540.978075702541" r="85.85160358121584" fill="#f7f5fd" transform="matrix(1,0,0,1,0,0)" style="animation-play-state:paused" ></circle>
<circle cx="85.85160358121584" cy="579.6347228589025" r="61.94757222150779" fill="#f7f5fd" transform="matrix(1,0,0,1,-0.2976807951927185,0)" style="animation-play-state:paused" ></circle>
<circle cx="147.79917580272362" cy="583.2533757079407" r="65.82313159525775" fill="#f7f5fd" transform="matrix(1,0,0,1,-1.3668028116226196,0)" style="animation-play-state:paused" ></circle>
<circle cx="213.6223073979814" cy="598.7071314030408" r="56.6544568446557" fill="#f7f5fd" transform="matrix(1,0,0,1,-3.44415545463562,0)" style="animation-play-state:paused" ></circle>
<circle cx="270.2767642426371" cy="615.2591028165986" r="41.459332320335044" fill="#f7f5fd" transform="matrix(1,0,0,1,-6.176832675933838,0)" style="animation-play-state:paused" ></circle>
<circle cx="311.73609656297214" cy="598.5522448225612" r="73.83937894941451" fill="#f7f5fd" transform="matrix(1,0,0,1,-8.397176742553711,0)" style="animation-play-state:paused" ></circle>
<circle cx="385.5754755123867" cy="613.8573162114857" r="63.186117977096394" fill="#f7f5fd" transform="matrix(1,0,0,1,-9.601896286010742,0)" style="animation-play-state:paused" ></circle>
<circle cx="448.76159348948306" cy="620.2517261803691" r="66.23013791134" fill="#f7f5fd" transform="matrix(1,0,0,1,-9.994407653808594,0)" style="animation-play-state:paused" ></circle>
<circle cx="514.991731400823" cy="634.6430065141428" r="39.920531511331745" fill="#f7f5fd" transform="matrix(1,0,0,1,-9.78663158416748,0)" style="animation-play-state:paused" ></circle>
<circle cx="554.9122629121548" cy="635.7267980908039" r="51.85675988792508" fill="#f7f5fd" transform="matrix(1,0,0,1,-8.847153663635254,0)" style="animation-play-state:paused" ></circle>
<circle cx="606.7690228000799" cy="640.5743079090728" r="54.97989935223053" fill="#f7f5fd" transform="matrix(1,0,0,1,-6.918674468994141,0)" style="animation-play-state:paused" ></circle>
<circle cx="661.7489221523105" cy="641.8616232503209" r="52.4378905695649" fill="#f7f5fd" transform="matrix(1,0,0,1,-4.215033531188965,0)" style="animation-play-state:paused" ></circle>
<circle cx="714.1868127218754" cy="636.0130312227252" r="57.41878542730783" fill="#f7f5fd" transform="matrix(1,0,0,1,-1.8613722324371338,0)" style="animation-play-state:paused" ></circle>
<circle cx="771.6055981491833" cy="625.720402040291" r="74.0782994716804" fill="#f7f5fd" transform="matrix(1,0,0,1,-0.515541136264801,0)" style="animation-play-state:paused" ></circle>
<circle cx="845.6838976208637" cy="618.284282969236" r="66.68022748360707" fill="#f7f5fd" transform="matrix(1,0,0,1,-0.0227847658097744,0)" style="animation-play-state:paused" ></circle>
<circle cx="912.3641251044708" cy="615.6082656166197" r="55.59564179751905" fill="#f7f5fd" transform="matrix(1,0,0,1,-0.14429610967636108,0)" style="animation-play-state:paused" ></circle>
<circle cx="967.9597669019898" cy="618.921983145578" r="40.782265607462456" fill="#f7f5fd" transform="matrix(1,0,0,1,-0.9602856040000916,0)" style="animation-play-state:paused" ></circle>
<circle cx="1008.7420325094523" cy="614.6189631362968" r="42.49552517967074" fill="#f7f5fd" transform="matrix(1,0,0,1,-2.737287998199463,0)" style="animation-play-state:paused" ></circle>
<circle cx="1051.2375576891232" cy="579.9699562104197" r="83.04046177025383" fill="#f7f5fd" transform="matrix(1,0,0,1,-5.384210586547852,0)" style="animation-play-state:paused" ></circle>
<circle cx="1134.278019459377" cy="576.5984918632344" r="72.72722959761192" fill="#f7f5fd" transform="matrix(1,0,0,1,-7.857372283935547,0)" style="animation-play-state:paused" ></circle>
<circle cx="1207.005249056989" cy="609.9441289962596" r="32.033444544301474" fill="#f7f5fd" transform="matrix(1,0,0,1,-9.349080085754395,0)" style="animation-play-state:paused" ></circle>
<circle cx="1239.0386936012906" cy="555.4293927643823" r="78.85576958033698" fill="#f7f5fd" transform="matrix(1,0,0,1,-9.94776439666748,0)" style="animation-play-state:paused" ></circle>
<circle cx="1317.8944631816275" cy="599.0956332436491" r="35.32850156495605" fill="#f7f5fd" transform="matrix(1,0,0,1,-9.910364151000977,0)" style="animation-play-state:paused" ></circle>
<circle cx="0" cy="649.978317188248" r="46.68473567646001" fill="#ffffff" transform="matrix(1,0,0,1,0,0)" style="animation-play-state:paused" ></circle>
<circle cx="46.68473567646001" cy="666.0395435067303" r="35.920605358731244" fill="#ffffff" transform="matrix(1,0,0,1,-0.3967548906803131,0)" style="animation-play-state:paused" ></circle>
<circle cx="82.60534103519126" cy="615.0259169111775" r="87.04696071328631" fill="#ffffff" transform="matrix(1,0,0,1,-1.8546782732009888,0)" style="animation-play-state:paused" ></circle>
<circle cx="169.65230174847756" cy="650.0043803312265" r="63.49415677174705" fill="#ffffff" transform="matrix(1,0,0,1,-4.6007561683654785,0)" style="animation-play-state:paused" ></circle>
<circle cx="233.1464585202246" cy="650.9837841631602" r="72.11927337028345" fill="#ffffff" transform="matrix(1,0,0,1,-7.570519924163818,0)" style="animation-play-state:paused" ></circle>
<circle cx="305.26573189050805" cy="662.6819968627802" r="69.01873279063322" fill="#ffffff" transform="matrix(1,0,0,1,-9.355050086975098,0)" style="animation-play-state:paused" ></circle>
<circle cx="374.2844646811413" cy="662.0013998569599" r="88.31218712194958" fill="#ffffff" transform="matrix(1,0,0,1,-9.977882385253906,0)" style="animation-play-state:paused" ></circle>
<circle cx="462.5966518030909" cy="682.4366118473799" r="70.83936394546018" fill="#ffffff" transform="matrix(1,0,0,1,-9.78536319732666,0)" style="animation-play-state:paused" ></circle>
<circle cx="533.4360157485511" cy="688.4290514843306" r="87.93939723178966" fill="#ffffff" transform="matrix(1,0,0,1,-8.6322660446167,0)" style="animation-play-state:paused" ></circle>
<circle cx="621.3754129803408" cy="704.0846803309456" r="54.84705902028434" fill="#ffffff" transform="matrix(1,0,0,1,-6.180027008056641,0)" style="animation-play-state:paused" ></circle>
<circle cx="676.2224720006251" cy="703.1848751659788" r="41.449404984067506" fill="#ffffff" transform="matrix(1,0,0,1,-3.0886495113372803,0)" style="animation-play-state:paused" ></circle>
<circle cx="717.6718769846926" cy="693.8597359546127" r="83.36102772628051" fill="#ffffff" transform="matrix(1,0,0,1,-0.9663257598876953,0)" style="animation-play-state:paused" ></circle>
<circle cx="801.0329047109732" cy="686.9446135539255" r="63.11053501444559" fill="#ffffff" transform="matrix(1,0,0,1,-0.09182170033454895,0)" style="animation-play-state:paused" ></circle>
<circle cx="864.1434397254188" cy="670.5862734721562" r="84.26443726386756" fill="#ffffff" transform="matrix(1,0,0,1,-0.09182170033454895,0)" style="animation-play-state:paused" ></circle>
<circle cx="948.4078769892864" cy="659.0016124323321" r="81.27485895448439" fill="#ffffff" transform="matrix(1,0,0,1,-0.9663257598876953,0)" style="animation-play-state:paused" ></circle>
<circle cx="1029.6827359437707" cy="651.2043644772912" r="74.99521084675831" fill="#ffffff" transform="matrix(1,0,0,1,-3.0886495113372803,0)" style="animation-play-state:paused" ></circle>
<circle cx="1104.677946790529" cy="635.5372412151505" r="80.87351310331726" fill="#ffffff" transform="matrix(1,0,0,1,-6.180027008056641,0)" style="animation-play-state:paused" ></circle>
<circle cx="1185.5514598938462" cy="618.5200319127579" r="85.52077376704447" fill="#ffffff" transform="matrix(1,0,0,1,-8.6322660446167,0)" style="animation-play-state:paused" ></circle>
<circle cx="1271.0722336608906" cy="612.8364356147733" r="78.73462289815652" fill="#ffffff" transform="matrix(1,0,0,1,-9.78536319732666,0)" style="animation-play-state:paused" ></circle></g></svg>