<?xml version="1.0" encoding="utf-8"?><svg xmlns="http://www.w3.org/2000/svg" xmlns:xlink="http://www.w3.org/1999/xlink" width="1283" height="644" preserveAspectRatio="xMidYMid" viewBox="0 0 1283 644" style="z-index: 1; display: block; background-color: rgb(241, 242, 243); animation-play-state: running" ><g transform="translate(641.5,322) scale(1,1) translate(-641.5,-322)" style="animation-play-state: running" ><defs style="animation-play-state: running" ><linearGradient id="lg-0.8309272811329557" x1="0" x2="0" y1="0" y2="1" style="animation-play-state: running" ><stop stop-color="#5e6fa3" offset="0" style="animation-play-state: running" ></stop>

  
<stop stop-color="#3b4368" offset="1" style="animation-play-state: running" ></stop></linearGradient></defs>


<rect x="0" y="0" width="1283" height="644" fill="url(#lg-0.8309272811329557)" style="animation-play-state: running" ></rect>
<circle cx="0" cy="230.9" r="34.2" fill="#93dbe9" transform="matrix(1,0,0,1,0,0)" style="animation-play-state:running" ></circle>
<circle cx="34.2" cy="167.6" r="91.9" fill="#93dbe9" transform="matrix(1,0,0,1,0,0)" style="animation-play-state:running" ></circle>
<circle cx="126.1" cy="187.1" r="88.1" fill="#93dbe9" transform="matrix(1,0,0,1,0,0)" style="animation-play-state: running" ></circle>
<circle cx="214.2" cy="202.6" r="86.9" fill="#93dbe9" transform="matrix(1,0,0,1,-0.1,0)" style="animation-play-state: running" ></circle>
<circle cx="301.1" cy="218.5" r="84" fill="#93dbe9" transform="matrix(1,0,0,1,-0.1,0)" style="animation-play-state: running" ></circle>
<circle cx="385.1" cy="237.9" r="71" fill="#93dbe9" transform="matrix(1,0,0,1,-0.1,0)" style="animation-play-state: running" ></circle>
<circle cx="456.1" cy="244.3" r="79.9" fill="#93dbe9" transform="matrix(1,0,0,1,-0.2,0)" style="animation-play-state: running" ></circle>
<circle cx="536" cy="257.1" r="75.3" fill="#93dbe9" transform="matrix(1,0,0,1,-0.3,0)" style="animation-play-state: running" ></circle>
<circle cx="611.2" cy="267" r="89" fill="#93dbe9" transform="matrix(1,0,0,1,-0.4,0)" style="animation-play-state: running" ></circle>
<circle cx="700.2" cy="265.5" r="59.2" fill="#93dbe9" transform="matrix(1,0,0,1,-0.5,0)" style="animation-play-state: running" ></circle>
<circle cx="759.4" cy="252.5" r="88.5" fill="#93dbe9" transform="matrix(1,0,0,1,-0.6,0)" style="animation-play-state: running" ></circle>
<circle cx="847.9" cy="236.6" r="91.7" fill="#93dbe9" transform="matrix(1,0,0,1,-0.8,0)" style="animation-play-state: running" ></circle>
<circle cx="939.5" cy="237.8" r="61.3" fill="#93dbe9" transform="matrix(1,0,0,1,-1,0)" style="animation-play-state: running" ></circle>
<circle cx="1000.8" cy="228.1" r="65.4" fill="#93dbe9" transform="matrix(1,0,0,1,-1.2,0)" style="animation-play-state: running" ></circle>
<circle cx="1066.2" cy="226.8" r="57" fill="#93dbe9" transform="matrix(1,0,0,1,-1.4,0)" style="animation-play-state: running" ></circle>
<circle cx="1123.1" cy="202.5" r="77.1" fill="#93dbe9" transform="matrix(1,0,0,1,-1.6,0)" style="animation-play-state: running" ></circle>
<circle cx="1200.2" cy="229.7" r="40.5" fill="#93dbe9" transform="matrix(1,0,0,1,-1.9,0)" style="animation-play-state: running" ></circle>
<circle cx="1240.7" cy="235.9" r="32.2" fill="#93dbe9" transform="matrix(1,0,0,1,-2.1,0)" style="animation-play-state: running" ></circle>
<circle cx="1272.9" cy="183.3" r="75.1" fill="#93dbe9" transform="matrix(1,0,0,1,-2.4,0)" style="animation-play-state: running" ></circle>
<circle cx="0" cy="292.5" r="34.6" fill="#8bd2e4" transform="matrix(1,0,0,1,0,0)" style="animation-play-state: running" ></circle>
<circle cx="34.6" cy="288.5" r="40.1" fill="#8bd2e4" transform="matrix(1,0,0,1,0,0)" style="animation-play-state: running" ></circle>
<circle cx="74.7" cy="289.1" r="42.4" fill="#8bd2e4" transform="matrix(1,0,0,1,-0.1,0)" style="animation-play-state: running" ></circle>
<circle cx="117.1" cy="302.3" r="32.3" fill="#8bd2e4" transform="matrix(1,0,0,1,-0.2,0)" style="animation-play-state: running" ></circle>
<circle cx="149.4" cy="290" r="47.8" fill="#8bd2e4" transform="matrix(1,0,0,1,-0.4,0)" style="animation-play-state: running" ></circle>
<circle cx="197.2" cy="290.2" r="52.6" fill="#8bd2e4" transform="matrix(1,0,0,1,-0.6,0)" style="animation-play-state: running" ></circle>
<circle cx="249.8" cy="287.5" r="63.4" fill="#8bd2e4" transform="matrix(1,0,0,1,-1,0)" style="animation-play-state: running" ></circle>
<circle cx="313.2" cy="305" r="47.2" fill="#8bd2e4" transform="matrix(1,0,0,1,-1.4,0)" style="animation-play-state: running" ></circle>
<circle cx="360.4" cy="290.9" r="82" fill="#8bd2e4" transform="matrix(1,0,0,1,-1.9,0)" style="animation-play-state: running" ></circle>
<circle cx="442.4" cy="308.2" r="69.3" fill="#8bd2e4" transform="matrix(1,0,0,1,-2.4,0)" style="animation-play-state: running" ></circle>
<circle cx="511.7" cy="320.8" r="54.4" fill="#8bd2e4" transform="matrix(1,0,0,1,-3.1,0)" style="animation-play-state: running" ></circle>
<circle cx="566.1" cy="323.1" r="77.4" fill="#8bd2e4" transform="matrix(1,0,0,1,-3.8,0)" style="animation-play-state: running" ></circle>
<circle cx="643.5" cy="333.7" r="79.8" fill="#8bd2e4" transform="matrix(1,0,0,1,-4.6,0)" style="animation-play-state: running" ></circle>
<circle cx="723.3" cy="327.4" r="43" fill="#8bd2e4" transform="matrix(1,0,0,1,-5.4,0)" style="animation-play-state: running" ></circle>
<circle cx="766.3" cy="322.2" r="50.6" fill="#8bd2e4" transform="matrix(1,0,0,1,-6.2,0)" style="animation-play-state: running" ></circle>
<circle cx="816.9" cy="318.7" r="46.5" fill="#8bd2e4" transform="matrix(1,0,0,1,-6.9,0)" style="animation-play-state: running" ></circle>
<circle cx="863.5" cy="319" r="36.2" fill="#8bd2e4" transform="matrix(1,0,0,1,-7.6,0)" style="animation-play-state: running" ></circle>
<circle cx="899.7" cy="292.7" r="85.6" fill="#8bd2e4" transform="matrix(1,0,0,1,-8.1,0)" style="animation-play-state: running" ></circle>
<circle cx="985.3" cy="297.7" r="56.4" fill="#8bd2e4" transform="matrix(1,0,0,1,-8.6,0)" style="animation-play-state: running" ></circle>
<circle cx="1041.7" cy="281.6" r="70" fill="#8bd2e4" transform="matrix(1,0,0,1,-9,0)" style="animation-play-state: running" ></circle>
<circle cx="1111.6" cy="276.6" r="65.3" fill="#8bd2e4" transform="matrix(1,0,0,1,-9.4,0)" style="animation-play-state: running" ></circle>
<circle cx="1176.9" cy="268" r="65.9" fill="#8bd2e4" transform="matrix(1,0,0,1,-9.6,0)" style="animation-play-state: running" ></circle>
<circle cx="1242.8" cy="273.5" r="53.8" fill="#8bd2e4" transform="matrix(1,0,0,1,-9.8,0)" style="animation-play-state: running" ></circle>
<circle cx="1296.6" cy="234.7" r="81" fill="#8bd2e4" transform="matrix(1,0,0,1,-9.9,0)" style="animation-play-state: running" ></circle>
<circle cx="0" cy="332.4" r="53" fill="#83c9e0" transform="matrix(1,0,0,1,0,0)" style="animation-play-state: running" ></circle>
<circle cx="53" cy="332.8" r="57.4" fill="#83c9e0" transform="matrix(1,0,0,1,-0.1,0)" style="animation-play-state: running" ></circle>
<circle cx="110.4" cy="339.2" r="57.2" fill="#83c9e0" transform="matrix(1,0,0,1,-0.2,0)" style="animation-play-state: running" ></circle>
<circle cx="167.6" cy="325.1" r="80" fill="#83c9e0" transform="matrix(1,0,0,1,-0.5,0)" style="animation-play-state: running" ></circle>
<circle cx="247.6" cy="330.7" r="88.7" fill="#83c9e0" transform="matrix(1,0,0,1,-1,0)" style="animation-play-state: running" ></circle>
<circle cx="336.2" cy="365.2" r="53.9" fill="#83c9e0" transform="matrix(1,0,0,1,-1.6,0)" style="animation-play-state: running" ></circle>
<circle cx="390.2" cy="367.8" r="60.1" fill="#83c9e0" transform="matrix(1,0,0,1,-2.4,0)" style="animation-play-state: running" ></circle>
<circle cx="450.2" cy="371.7" r="68" fill="#83c9e0" transform="matrix(1,0,0,1,-3.4,0)" style="animation-play-state: running" ></circle>
<circle cx="518.2" cy="382.6" r="58.3" fill="#83c9e0" transform="matrix(1,0,0,1,-4.6,0)" style="animation-play-state: running" ></circle>
<circle cx="576.5" cy="390.1" r="48.5" fill="#83c9e0" transform="matrix(1,0,0,1,-5.8,0)" style="animation-play-state: running" ></circle>
<circle cx="624.9" cy="393.5" r="81.1" fill="#83c9e0" transform="matrix(1,0,0,1,-6.9,0)" style="animation-play-state: running" ></circle>
<circle cx="706" cy="385.9" r="83.9" fill="#83c9e0" transform="matrix(1,0,0,1,-7.9,0)" style="animation-play-state: running" ></circle>
<circle cx="790" cy="372.8" r="83.5" fill="#83c9e0" transform="matrix(1,0,0,1,-8.6,0)" style="animation-play-state: running" ></circle>
<circle cx="873.5" cy="366.9" r="67.1" fill="#83c9e0" transform="matrix(1,0,0,1,-9.2,0)" style="animation-play-state: running" ></circle>
<circle cx="940.6" cy="366.9" r="52.1" fill="#83c9e0" transform="matrix(1,0,0,1,-9.6,0)" style="animation-play-state: running" ></circle>
<circle cx="992.7" cy="365" r="47.2" fill="#83c9e0" transform="matrix(1,0,0,1,-9.9,0)" style="animation-play-state: running" ></circle>
<circle cx="1039.9" cy="330.8" r="87.5" fill="#83c9e0" transform="matrix(1,0,0,1,-10,0)" style="animation-play-state: running" ></circle>
<circle cx="1127.4" cy="350.1" r="50.5" fill="#83c9e0" transform="matrix(1,0,0,1,-10,0)" style="animation-play-state: running" ></circle>
<circle cx="1177.9" cy="317.9" r="77.9" fill="#83c9e0" transform="matrix(1,0,0,1,-9.9,0)" style="animation-play-state: running" ></circle>
<circle cx="1255.8" cy="332.9" r="54.9" fill="#83c9e0" transform="matrix(1,0,0,1,-9.7,0)" style="animation-play-state: running" ></circle>
<circle cx="1310.7" cy="347.3" r="38.9" fill="#83c9e0" transform="matrix(1,0,0,1,-9.4,0)" style="animation-play-state: running" ></circle>
<circle cx="1349.5" cy="326.2" r="52.7" fill="#83c9e0" transform="matrix(1,0,0,1,-8.8,0)" style="animation-play-state: running" ></circle>
<circle cx="0" cy="407.6" r="42" fill="#7cc0db" transform="matrix(1,0,0,1,0,0)" style="animation-play-state: running" ></circle>
<circle cx="42" cy="414.8" r="38.5" fill="#7cc0db" transform="matrix(1,0,0,1,-0.1,0)" style="animation-play-state: running" ></circle>
<circle cx="80.6" cy="387.4" r="67.2" fill="#7cc0db" transform="matrix(1,0,0,1,-0.4,0)" style="animation-play-state: running" ></circle>
<circle cx="147.8" cy="401" r="61.7" fill="#7cc0db" transform="matrix(1,0,0,1,-1,0)" style="animation-play-state: running" ></circle>
<circle cx="209.5" cy="392.6" r="80.9" fill="#7cc0db" transform="matrix(1,0,0,1,-1.9,0)" style="animation-play-state: running" ></circle>
<circle cx="290.4" cy="412.6" r="69.1" fill="#7cc0db" transform="matrix(1,0,0,1,-3.1,0)" style="animation-play-state: running" ></circle>
<circle cx="359.5" cy="437.8" r="38.4" fill="#7cc0db" transform="matrix(1,0,0,1,-4.6,0)" style="animation-play-state: running" ></circle>
<circle cx="397.8" cy="434.5" r="51.5" fill="#7cc0db" transform="matrix(1,0,0,1,-6.2,0)" style="animation-play-state: running" ></circle>
<circle cx="449.3" cy="442.2" r="43.8" fill="#7cc0db" transform="matrix(1,0,0,1,-7.6,0)" style="animation-play-state: running" ></circle>
<circle cx="493.1" cy="437.7" r="73" fill="#7cc0db" transform="matrix(1,0,0,1,-8.6,0)" style="animation-play-state: running" ></circle>
<circle cx="566.1" cy="452.2" r="41.2" fill="#7cc0db" transform="matrix(1,0,0,1,-9.4,0)" style="animation-play-state: running" ></circle>
<circle cx="607.3" cy="454.8" r="49.5" fill="#7cc0db" transform="matrix(1,0,0,1,-9.8,0)" style="animation-play-state: running" ></circle>
<circle cx="656.8" cy="456.7" r="43.9" fill="#7cc0db" transform="matrix(1,0,0,1,-10,0)" style="animation-play-state: running" ></circle>
<circle cx="700.6" cy="449.9" r="73.1" fill="#7cc0db" transform="matrix(1,0,0,1,-10,0)" style="animation-play-state: running" ></circle>
<circle cx="773.7" cy="439.6" r="74.3" fill="#7cc0db" transform="matrix(1,0,0,1,-9.8,0)" style="animation-play-state: running" ></circle>
<circle cx="848" cy="426" r="82.9" fill="#7cc0db" transform="matrix(1,0,0,1,-9.4,0)" style="animation-play-state: running" ></circle>
<circle cx="930.9" cy="427.7" r="55.9" fill="#7cc0db" transform="matrix(1,0,0,1,-8.6,0)" style="animation-play-state: running" ></circle>
<circle cx="986.8" cy="430.3" r="42.8" fill="#7cc0db" transform="matrix(1,0,0,1,-7.6,0)" style="animation-play-state: running" ></circle>
<circle cx="1029.6" cy="412.3" r="62.9" fill="#7cc0db" transform="matrix(1,0,0,1,-6.2,0)" style="animation-play-state: running" ></circle>
<circle cx="1092.6" cy="395.8" r="73.7" fill="#7cc0db" transform="matrix(1,0,0,1,-4.6,0)" style="animation-play-state: running" ></circle>
<circle cx="1166.3" cy="400.7" r="58.4" fill="#7cc0db" transform="matrix(1,0,0,1,-3.1,0)" style="animation-play-state: running" ></circle>
<circle cx="1224.6" cy="365.5" r="84.8" fill="#7cc0db" transform="matrix(1,0,0,1,-1.9,0)" style="animation-play-state: running" ></circle>
<circle cx="1309.5" cy="361.9" r="76.9" fill="#7cc0db" transform="matrix(1,0,0,1,-1,0)" style="animation-play-state: running" ></circle>
<circle cx="0" cy="414.1" r="88.2" fill="#76b7d6" transform="matrix(1,0,0,1,0,0)" style="animation-play-state: running" ></circle>
<circle cx="88.2" cy="431.5" r="85.5" fill="#76b7d6" transform="matrix(1,0,0,1,-0.1,0)" style="animation-play-state: running" ></circle>
<circle cx="173.7" cy="458.1" r="70.8" fill="#76b7d6" transform="matrix(1,0,0,1,-0.6,0)" style="animation-play-state: running" ></circle>
<circle cx="244.5" cy="486.4" r="45.2" fill="#76b7d6" transform="matrix(1,0,0,1,-1.6,0)" style="animation-play-state: running" ></circle>
<circle cx="289.7" cy="471.1" r="74.3" fill="#76b7d6" transform="matrix(1,0,0,1,-3.1,0)" style="animation-play-state: running" ></circle>
<circle cx="364" cy="485.7" r="66.1" fill="#76b7d6" transform="matrix(1,0,0,1,-5,0)" style="animation-play-state: running" ></circle>
<circle cx="430.2" cy="496.6" r="59.1" fill="#76b7d6" transform="matrix(1,0,0,1,-6.9,0)" style="animation-play-state: running" ></circle>
<circle cx="489.2" cy="497.7" r="78.2" fill="#76b7d6" transform="matrix(1,0,0,1,-8.4,0)" style="animation-play-state: running" ></circle>
<circle cx="567.4" cy="512.8" r="52.3" fill="#76b7d6" transform="matrix(1,0,0,1,-9.4,0)" style="animation-play-state: running" ></circle>
<circle cx="619.8" cy="518.3" r="41.7" fill="#76b7d6" transform="matrix(1,0,0,1,-9.9,0)" style="animation-play-state: running" ></circle>
<circle cx="661.5" cy="517.7" r="60.9" fill="#76b7d6" transform="matrix(1,0,0,1,-10,0)" style="animation-play-state: running" ></circle>
<circle cx="722.4" cy="506.4" r="89.7" fill="#76b7d6" transform="matrix(1,0,0,1,-9.9,0)" style="animation-play-state: running" ></circle>
<circle cx="812.1" cy="510" r="31.3" fill="#76b7d6" transform="matrix(1,0,0,1,-9.4,0)" style="animation-play-state: running" ></circle>
<circle cx="843.4" cy="497.4" r="59.8" fill="#76b7d6" transform="matrix(1,0,0,1,-8.4,0)" style="animation-play-state: running" ></circle>
<circle cx="903.2" cy="490.1" r="61.1" fill="#76b7d6" transform="matrix(1,0,0,1,-6.9,0)" style="animation-play-state: running" ></circle>
<circle cx="964.3" cy="496" r="39.8" fill="#76b7d6" transform="matrix(1,0,0,1,-5,0)" style="animation-play-state: running" ></circle>
<circle cx="1004.1" cy="472.4" r="70.1" fill="#76b7d6" transform="matrix(1,0,0,1,-3.1,0)" style="animation-play-state: running" ></circle>
<circle cx="1074.2" cy="470.4" r="61.2" fill="#76b7d6" transform="matrix(1,0,0,1,-1.6,0)" style="animation-play-state: running" ></circle>
<circle cx="1135.4" cy="488.1" r="34.5" fill="#76b7d6" transform="matrix(1,0,0,1,-0.6,0)" style="animation-play-state: running" ></circle>
<circle cx="1170" cy="429.3" r="91.7" fill="#76b7d6" transform="matrix(1,0,0,1,-0.1,0)" style="animation-play-state: running" ></circle>
<circle cx="1261.7" cy="413.5" r="91.8" fill="#76b7d6" transform="matrix(1,0,0,1,0,0)" style="animation-play-state: running" ></circle>
<circle cx="1353.5" cy="474.2" r="34.4" fill="#76b7d6" transform="matrix(1,0,0,1,-0.1,0)" style="animation-play-state: running" ></circle>
<circle cx="0" cy="484.6" r="81.2" fill="#71aed0" transform="matrix(1,0,0,1,0,0)" style="animation-play-state: running" ></circle>
<circle cx="81.2" cy="540.4" r="39.7" fill="#71aed0" transform="matrix(1,0,0,1,-0.2,0)" style="animation-play-state: running" ></circle>
<circle cx="120.9" cy="528.1" r="55.3" fill="#71aed0" transform="matrix(1,0,0,1,-1,0)" style="animation-play-state: running" ></circle>
<circle cx="176.2" cy="535.7" r="53.2" fill="#71aed0" transform="matrix(1,0,0,1,-2.4,0)" style="animation-play-state: running" ></circle>
<circle cx="229.4" cy="530.2" r="67.2" fill="#71aed0" transform="matrix(1,0,0,1,-4.6,0)" style="animation-play-state: running" ></circle>
<circle cx="296.5" cy="546.3" r="55.4" fill="#71aed0" transform="matrix(1,0,0,1,-6.9,0)" style="animation-play-state: running" ></circle>
<circle cx="351.9" cy="538.8" r="79.8" fill="#71aed0" transform="matrix(1,0,0,1,-8.6,0)" style="animation-play-state: running" ></circle>
<circle cx="431.7" cy="547.3" r="88.4" fill="#71aed0" transform="matrix(1,0,0,1,-9.6,0)" style="animation-play-state: running" ></circle>
<circle cx="520.1" cy="567.9" r="62.3" fill="#71aed0" transform="matrix(1,0,0,1,-10,0)" style="animation-play-state: running" ></circle>
<circle cx="582.4" cy="574.7" r="66.4" fill="#71aed0" transform="matrix(1,0,0,1,-9.9,0)" style="animation-play-state: running" ></circle>
<circle cx="648.8" cy="580.7" r="92.3" fill="#71aed0" transform="matrix(1,0,0,1,-9.4,0)" style="animation-play-state: running" ></circle>
<circle cx="741.1" cy="570.5" r="61.9" fill="#71aed0" transform="matrix(1,0,0,1,-8.1,0)" style="animation-play-state: running" ></circle>
<circle cx="803" cy="563.6" r="60.9" fill="#71aed0" transform="matrix(1,0,0,1,-6.2,0)" style="animation-play-state: running" ></circle>
<circle cx="863.9" cy="564.1" r="43" fill="#71aed0" transform="matrix(1,0,0,1,-3.8,0)" style="animation-play-state: running" ></circle>
<circle cx="906.8" cy="547.6" r="69.2" fill="#71aed0" transform="matrix(1,0,0,1,-1.9,0)" style="animation-play-state: running" ></circle>
<circle cx="976" cy="528.1" r="86.1" fill="#71aed0" transform="matrix(1,0,0,1,-0.6,0)" style="animation-play-state: running" ></circle>
<circle cx="1062.1" cy="526.1" r="71.1" fill="#71aed0" transform="matrix(1,0,0,1,-0.1,0)" style="animation-play-state: running" ></circle>
<circle cx="1133.2" cy="551.5" r="33.1" fill="#71aed0" transform="matrix(1,0,0,1,0,0)" style="animation-play-state: running" ></circle>
<circle cx="1166.3" cy="541.8" r="40.9" fill="#71aed0" transform="matrix(1,0,0,1,-0.4,0)" style="animation-play-state: running" ></circle>
<circle cx="1207.3" cy="524.4" r="54.4" fill="#71aed0" transform="matrix(1,0,0,1,-1.4,0)" style="animation-play-state: running" ></circle>
<circle cx="1261.7" cy="484.5" r="84" fill="#71aed0" transform="matrix(1,0,0,1,-3.1,0)" style="animation-play-state: running" ></circle>
<circle cx="0" cy="535.4" r="90.5" fill="#6ca5cb" transform="matrix(1,0,0,1,0,0)" style="animation-play-state: running" ></circle>
<circle cx="90.5" cy="583.8" r="58.4" fill="#6ca5cb" transform="matrix(1,0,0,1,-0.3,0)" style="animation-play-state: running" ></circle>
<circle cx="148.9" cy="604.2" r="43.1" fill="#6ca5cb" transform="matrix(1,0,0,1,-1.4,0)" style="animation-play-state: running" ></circle>
<circle cx="192" cy="569.3" r="88.8" fill="#6ca5cb" transform="matrix(1,0,0,1,-3.4,0)" style="animation-play-state: running" ></circle>
<circle cx="280.8" cy="610.6" r="49.4" fill="#6ca5cb" transform="matrix(1,0,0,1,-6.2,0)" style="animation-play-state: running" ></circle>
<circle cx="330.3" cy="608.5" r="60.9" fill="#6ca5cb" transform="matrix(1,0,0,1,-8.4,0)" style="animation-play-state: running" ></circle>
<circle cx="391.2" cy="604.1" r="85.2" fill="#6ca5cb" transform="matrix(1,0,0,1,-9.6,0)" style="animation-play-state: running" ></circle>
<circle cx="476.4" cy="632.6" r="36.8" fill="#6ca5cb" transform="matrix(1,0,0,1,-10,0)" style="animation-play-state: running" ></circle>
<circle cx="513.2" cy="628.8" r="63.3" fill="#6ca5cb" transform="matrix(1,0,0,1,-9.8,0)" style="animation-play-state: running" ></circle>
<circle cx="576.5" cy="639.4" r="37.7" fill="#6ca5cb" transform="matrix(1,0,0,1,-8.8,0)" style="animation-play-state: running" ></circle>
<circle cx="614.3" cy="641.4" r="50.8" fill="#6ca5cb" transform="matrix(1,0,0,1,-6.9,0)" style="animation-play-state: running" ></circle>
<circle cx="665" cy="640.1" r="88" fill="#6ca5cb" transform="matrix(1,0,0,1,-4.2,0)" style="animation-play-state: running" ></circle>
<circle cx="753" cy="634.8" r="44" fill="#6ca5cb" transform="matrix(1,0,0,1,-1.9,0)" style="animation-play-state: running" ></circle>
<circle cx="797" cy="630.7" r="45.9" fill="#6ca5cb" transform="matrix(1,0,0,1,-0.5,0)" style="animation-play-state: running" ></circle>
<circle cx="842.8" cy="621.3" r="60.2" fill="#6ca5cb" transform="matrix(1,0,0,1,0,0)" style="animation-play-state: running" ></circle>
<circle cx="903" cy="622.3" r="44.3" fill="#6ca5cb" transform="matrix(1,0,0,1,-0.1,0)" style="animation-play-state: running" ></circle>
<circle cx="947.3" cy="614.3" r="51.9" fill="#6ca5cb" transform="matrix(1,0,0,1,-1,0)" style="animation-play-state: running" ></circle>
<circle cx="999.2" cy="595.8" r="72" fill="#6ca5cb" transform="matrix(1,0,0,1,-2.7,0)" style="animation-play-state: running" ></circle>
<circle cx="1071.2" cy="599.5" r="55.3" fill="#6ca5cb" transform="matrix(1,0,0,1,-5.4,0)" style="animation-play-state: running" ></circle>
<circle cx="1126.5" cy="577.1" r="73.8" fill="#6ca5cb" transform="matrix(1,0,0,1,-7.9,0)" style="animation-play-state: running" ></circle>
<circle cx="1200.3" cy="559" r="81.3" fill="#6ca5cb" transform="matrix(1,0,0,1,-9.3,0)" style="animation-play-state: running" ></circle>
<circle cx="1281.6" cy="553" r="76" fill="#6ca5cb" transform="matrix(1,0,0,1,-9.9,0)" style="animation-play-state: running" ></circle>
<circle cx="0" cy="637.6" r="57" fill="#689cc5" transform="matrix(1,0,0,1,0,0)" style="animation-play-state: running" ></circle>
<circle cx="57" cy="652.2" r="49.2" fill="#689cc5" transform="matrix(1,0,0,1,-0.4,0)" style="animation-play-state: running" ></circle>
<circle cx="106.2" cy="634.9" r="71" fill="#689cc5" transform="matrix(1,0,0,1,-1.9,0)" style="animation-play-state: running" ></circle>
<circle cx="177.2" cy="653" r="61" fill="#689cc5" transform="matrix(1,0,0,1,-4.6,0)" style="animation-play-state: running" ></circle>
<circle cx="238.2" cy="636" r="92.8" fill="#689cc5" transform="matrix(1,0,0,1,-7.6,0)" style="animation-play-state: running" ></circle>
<circle cx="331" cy="654.9" r="88" fill="#689cc5" transform="matrix(1,0,0,1,-9.4,0)" style="animation-play-state: running" ></circle>
<circle cx="419" cy="673.4" r="78.4" fill="#689cc5" transform="matrix(1,0,0,1,-10,0)" style="animation-play-state: running" ></circle>
<circle cx="497.4" cy="682.4" r="87.5" fill="#689cc5" transform="matrix(1,0,0,1,-9.8,0)" style="animation-play-state: running" ></circle>
<circle cx="584.9" cy="698.2" r="73.4" fill="#689cc5" transform="matrix(1,0,0,1,-8.6,0)" style="animation-play-state: running" ></circle>
<circle cx="658.3" cy="704.9" r="35" fill="#689cc5" transform="matrix(1,0,0,1,-6.2,0)" style="animation-play-state: running" ></circle>
<circle cx="693.3" cy="702.3" r="38.5" fill="#689cc5" transform="matrix(1,0,0,1,-3.1,0)" style="animation-play-state: running" ></circle>
<circle cx="731.8" cy="691.7" r="84.6" fill="#689cc5" transform="matrix(1,0,0,1,-1,0)" style="animation-play-state: running" ></circle>
<circle cx="816.4" cy="691.3" r="44.9" fill="#689cc5" transform="matrix(1,0,0,1,-0.1,0)" style="animation-play-state: running" ></circle>
<circle cx="861.3" cy="682.7" r="56.7" fill="#689cc5" transform="matrix(1,0,0,1,-0.1,0)" style="animation-play-state: running" ></circle>
<circle cx="917.9" cy="662.1" r="84.9" fill="#689cc5" transform="matrix(1,0,0,1,-1,0)" style="animation-play-state: running" ></circle>
<circle cx="1002.9" cy="668.5" r="55.4" fill="#689cc5" transform="matrix(1,0,0,1,-3.1,0)" style="animation-play-state: running" ></circle>
<circle cx="1058.3" cy="658.9" r="60.4" fill="#689cc5" transform="matrix(1,0,0,1,-6.2,0)" style="animation-play-state: running" ></circle>
<circle cx="1118.7" cy="635" r="79.5" fill="#689cc5" transform="matrix(1,0,0,1,-8.6,0)" style="animation-play-state: running" ></circle>
<circle cx="1198.2" cy="632.8" r="70.3" fill="#689cc5" transform="matrix(1,0,0,1,-9.8,0)" style="animation-play-state: running" ></circle>
<circle cx="1268.5" cy="638.6" r="57.4" fill="#689cc5" transform="matrix(1,0,0,1,-10,0)" style="animation-play-state: running" ></circle></g></svg>